<?xml version="1.0" encoding="UTF-8" standalone="no"?><!DOCTYPE svg PUBLIC "-//W3C//DTD SVG 1.1//EN" "http://www.w3.org/Graphics/SVG/1.1/DTD/svg11.dtd"><svg width="100%" height="100%" viewBox="0 0 1174 663" version="1.1" xmlns="http://www.w3.org/2000/svg" xmlns:xlink="http://www.w3.org/1999/xlink" xml:space="preserve" xmlns:serif="http://www.serif.com/" style="fill-rule:evenodd;clip-rule:evenodd;stroke-linejoin:round;stroke-miterlimit:1.5;"><path d="M48.232,446.238c-80.697,-105.911 -51.815,-229.572 34.018,-297.844c18.315,-14.568 37.829,-27.561 56.674,-41.436c85.204,-62.732 68.443,-76.909 87.429,-106.351c8.841,30.345 111.763,251.271 -84.607,414.283c-48.548,40.3 -59.058,35.908 -58.402,62.213c0.304,12.179 28.082,85.922 24.8,91.494c-14.525,24.655 -42.498,-55.446 -42.226,-87.925c1.508,-179.723 90.924,-259.354 107.167,-283.015c-3.519,3.476 -67.961,37.686 -105.697,143.111c-2.89,8.074 -19.933,55.69 -19.156,105.47Z" style="fill:#9cba9f;stroke:#80ab8b;stroke-width:1.21px;"/><path d="M261.153,646.737l890.53,-0.815" style="fill:none;stroke:#fd9d8b;stroke-width:30.97px;stroke-linecap:round;"/><g transform="matrix(208.333,0,0,208.333,317.026,320.146)"><path d="M0.586,-0l-0,-0.7l0.13,0l-0,0.7l-0.13,-0Zm-0.492,-0l0,-0.7l0.13,0l0,0.7l-0.13,-0Zm0.119,-0.3l0,-0.111l0.383,-0l-0,0.111l-0.383,0Z" style="fill:#333;fill-rule:nonzero;"/></g><g transform="matrix(208.333,0,0,208.333,485.776,320.146)"><path d="M0.333,0.007c-0.059,-0 -0.111,-0.012 -0.156,-0.036c-0.044,-0.023 -0.078,-0.056 -0.103,-0.097c-0.024,-0.041 -0.036,-0.088 -0.036,-0.141c-0,-0.053 0.011,-0.1 0.035,-0.141c0.024,-0.042 0.057,-0.074 0.099,-0.097c0.041,-0.024 0.089,-0.035 0.142,-0.035c0.052,-0 0.098,0.011 0.139,0.034c0.041,0.023 0.073,0.055 0.096,0.096c0.023,0.041 0.035,0.09 0.035,0.146c0,0.006 -0,0.011 -0,0.018c-0.001,0.007 -0.001,0.013 -0.002,0.019l-0.445,-0l0,-0.083l0.379,0l-0.049,0.026c0,-0.03 -0.006,-0.057 -0.019,-0.081c-0.013,-0.023 -0.031,-0.041 -0.054,-0.055c-0.023,-0.013 -0.05,-0.02 -0.08,-0.02c-0.03,0 -0.057,0.007 -0.08,0.02c-0.024,0.014 -0.042,0.032 -0.055,0.056c-0.012,0.024 -0.019,0.051 -0.019,0.083l0,0.02c0,0.032 0.007,0.06 0.022,0.085c0.015,0.024 0.035,0.043 0.062,0.057c0.026,0.014 0.057,0.02 0.092,0.02c0.03,0 0.057,-0.004 0.081,-0.014c0.024,-0.01 0.045,-0.024 0.064,-0.044l0.067,0.077c-0.024,0.028 -0.054,0.05 -0.091,0.064c-0.036,0.015 -0.078,0.023 -0.124,0.023Z" style="fill:#333;fill-rule:nonzero;"/></g><g transform="matrix(208.333,0,0,208.333,612.234,320.146)"><path d="M0.411,-0l-0,-0.108l-0.007,-0.023l0,-0.189c0,-0.037 -0.011,-0.065 -0.033,-0.085c-0.022,-0.021 -0.056,-0.031 -0.1,-0.031c-0.03,-0 -0.06,0.005 -0.088,0.014c-0.029,0.01 -0.054,0.022 -0.074,0.039l-0.049,-0.091c0.029,-0.022 0.063,-0.038 0.103,-0.05c0.039,-0.011 0.081,-0.016 0.123,-0.016c0.077,-0 0.137,0.018 0.18,0.055c0.042,0.037 0.063,0.094 0.063,0.172l0,0.313l-0.118,0Zm-0.168,0.007c-0.04,-0 -0.075,-0.007 -0.105,-0.021c-0.03,-0.013 -0.054,-0.032 -0.07,-0.057c-0.016,-0.024 -0.024,-0.051 -0.024,-0.082c-0,-0.03 0.007,-0.057 0.022,-0.081c0.014,-0.024 0.038,-0.043 0.07,-0.057c0.033,-0.014 0.076,-0.021 0.13,-0.021l0.155,0l-0,0.083l-0.146,-0c-0.043,-0 -0.071,0.007 -0.086,0.021c-0.015,0.013 -0.022,0.03 -0.022,0.05c-0,0.023 0.009,0.041 0.027,0.054c0.018,0.013 0.043,0.02 0.075,0.02c0.031,-0 0.058,-0.007 0.083,-0.021c0.024,-0.014 0.042,-0.034 0.052,-0.062l0.021,0.075c-0.012,0.032 -0.033,0.056 -0.064,0.073c-0.031,0.017 -0.07,0.026 -0.118,0.026Z" style="fill:#333;fill-rule:nonzero;"/></g><g transform="matrix(208.333,0,0,208.333,738.692,320.146)"><rect x="0.082" y="-0.742" width="0.125" height="0.742" style="fill:#333;fill-rule:nonzero;"/></g><g transform="matrix(208.333,0,0,208.333,798.901,320.146)"><path d="M0.283,0.007c-0.059,-0 -0.104,-0.016 -0.136,-0.046c-0.032,-0.03 -0.048,-0.075 -0.048,-0.134l-0,-0.479l0.125,0l-0,0.476c-0,0.026 0.006,0.045 0.019,0.059c0.013,0.014 0.032,0.021 0.055,0.021c0.028,0 0.051,-0.007 0.07,-0.022l0.035,0.089c-0.015,0.012 -0.033,0.021 -0.054,0.027c-0.022,0.006 -0.044,0.009 -0.066,0.009Zm-0.272,-0.441l0,-0.1l0.356,0l-0,0.1l-0.356,-0Z" style="fill:#333;fill-rule:nonzero;"/></g><g transform="matrix(208.333,0,0,208.333,887.234,320.146)"><path d="M0.082,-0l0,-0.742l0.125,0l0,0.352l-0.027,-0.044c0.019,-0.034 0.046,-0.061 0.081,-0.079c0.036,-0.018 0.077,-0.027 0.124,-0.027c0.043,-0 0.081,0.008 0.115,0.025c0.033,0.016 0.059,0.042 0.079,0.077c0.019,0.034 0.029,0.078 0.029,0.132l-0,0.306l-0.125,-0l-0,-0.29c-0,-0.047 -0.011,-0.082 -0.033,-0.106c-0.023,-0.023 -0.054,-0.035 -0.094,-0.035c-0.029,0 -0.055,0.006 -0.078,0.018c-0.023,0.012 -0.04,0.03 -0.052,0.054c-0.013,0.023 -0.019,0.053 -0.019,0.089l0,0.27l-0.125,-0Z" style="fill:#333;fill-rule:nonzero;"/></g><g transform="matrix(208.333,0,0,208.333,1029.94,320.146)"></g><g transform="matrix(208.333,0,0,208.333,214.59,545.356)"><path d="M0.259,-0l-0.232,-0.7l0.135,0l0.207,0.633l-0.067,-0l0.215,-0.633l0.12,0l0.209,0.633l-0.065,-0l0.212,-0.633l0.124,0l-0.232,0.7l-0.138,-0l-0.191,-0.571l0.036,-0l-0.194,0.571l-0.139,-0Z" style="fill:#333;fill-rule:nonzero;"/></g><g transform="matrix(208.333,0,0,208.333,441.465,545.356)"><path d="M0.333,0.007c-0.059,-0 -0.111,-0.012 -0.156,-0.036c-0.044,-0.023 -0.078,-0.056 -0.103,-0.097c-0.024,-0.041 -0.036,-0.088 -0.036,-0.141c-0,-0.053 0.011,-0.1 0.035,-0.141c0.024,-0.042 0.057,-0.074 0.099,-0.097c0.041,-0.024 0.089,-0.035 0.142,-0.035c0.052,-0 0.098,0.011 0.139,0.034c0.041,0.023 0.073,0.055 0.096,0.096c0.023,0.041 0.035,0.09 0.035,0.146c0,0.006 -0,0.011 -0,0.018c-0.001,0.007 -0.001,0.013 -0.002,0.019l-0.445,-0l0,-0.083l0.379,0l-0.049,0.026c0,-0.03 -0.006,-0.057 -0.019,-0.081c-0.013,-0.023 -0.031,-0.041 -0.054,-0.055c-0.023,-0.013 -0.05,-0.02 -0.08,-0.02c-0.03,0 -0.057,0.007 -0.08,0.02c-0.024,0.014 -0.042,0.032 -0.055,0.056c-0.012,0.024 -0.019,0.051 -0.019,0.083l0,0.02c0,0.032 0.007,0.06 0.022,0.085c0.015,0.024 0.035,0.043 0.062,0.057c0.026,0.014 0.057,0.02 0.092,0.02c0.03,0 0.057,-0.004 0.081,-0.014c0.024,-0.01 0.045,-0.024 0.064,-0.044l0.067,0.077c-0.024,0.028 -0.054,0.05 -0.091,0.064c-0.036,0.015 -0.078,0.023 -0.124,0.023Z" style="fill:#333;fill-rule:nonzero;"/></g><g transform="matrix(208.333,0,0,208.333,571.049,545.356)"><rect x="0.082" y="-0.742" width="0.125" height="0.742" style="fill:#333;fill-rule:nonzero;"/></g><g transform="matrix(208.333,0,0,208.333,631.257,545.356)"><rect x="0.082" y="-0.742" width="0.125" height="0.742" style="fill:#333;fill-rule:nonzero;"/></g><g transform="matrix(208.333,0,0,208.333,691.465,545.356)"><path d="M0.082,-0l0,-0.534l0.119,0l0,0.144l-0.021,-0.044c0.019,-0.034 0.046,-0.061 0.081,-0.079c0.036,-0.018 0.077,-0.027 0.124,-0.027c0.043,-0 0.081,0.008 0.115,0.025c0.033,0.016 0.059,0.042 0.079,0.077c0.019,0.034 0.029,0.078 0.029,0.132l-0,0.306l-0.125,-0l-0,-0.29c-0,-0.047 -0.011,-0.082 -0.033,-0.106c-0.023,-0.023 -0.054,-0.035 -0.094,-0.035c-0.029,0 -0.055,0.006 -0.078,0.018c-0.023,0.012 -0.04,0.03 -0.052,0.054c-0.013,0.023 -0.019,0.053 -0.019,0.089l0,0.27l-0.125,-0Z" style="fill:#333;fill-rule:nonzero;"/></g><g transform="matrix(208.333,0,0,208.333,834.382,545.356)"><path d="M0.333,0.007c-0.059,-0 -0.111,-0.012 -0.156,-0.036c-0.044,-0.023 -0.078,-0.056 -0.103,-0.097c-0.024,-0.041 -0.036,-0.088 -0.036,-0.141c-0,-0.053 0.011,-0.1 0.035,-0.141c0.024,-0.042 0.057,-0.074 0.099,-0.097c0.041,-0.024 0.089,-0.035 0.142,-0.035c0.052,-0 0.098,0.011 0.139,0.034c0.041,0.023 0.073,0.055 0.096,0.096c0.023,0.041 0.035,0.09 0.035,0.146c0,0.006 -0,0.011 -0,0.018c-0.001,0.007 -0.001,0.013 -0.002,0.019l-0.445,-0l0,-0.083l0.379,0l-0.049,0.026c0,-0.03 -0.006,-0.057 -0.019,-0.081c-0.013,-0.023 -0.031,-0.041 -0.054,-0.055c-0.023,-0.013 -0.05,-0.02 -0.08,-0.02c-0.03,0 -0.057,0.007 -0.08,0.02c-0.024,0.014 -0.042,0.032 -0.055,0.056c-0.012,0.024 -0.019,0.051 -0.019,0.083l0,0.02c0,0.032 0.007,0.06 0.022,0.085c0.015,0.024 0.035,0.043 0.062,0.057c0.026,0.014 0.057,0.02 0.092,0.02c0.03,0 0.057,-0.004 0.081,-0.014c0.024,-0.01 0.045,-0.024 0.064,-0.044l0.067,0.077c-0.024,0.028 -0.054,0.05 -0.091,0.064c-0.036,0.015 -0.078,0.023 -0.124,0.023Z" style="fill:#333;fill-rule:nonzero;"/></g><g transform="matrix(208.333,0,0,208.333,963.965,545.356)"><path d="M0.247,0.007c-0.044,-0 -0.087,-0.006 -0.128,-0.018c-0.041,-0.011 -0.074,-0.025 -0.098,-0.042l0.048,-0.095c0.024,0.016 0.053,0.028 0.086,0.038c0.033,0.01 0.067,0.015 0.1,0.015c0.04,-0 0.068,-0.005 0.086,-0.016c0.017,-0.01 0.026,-0.025 0.026,-0.043c-0,-0.015 -0.006,-0.026 -0.018,-0.033c-0.012,-0.008 -0.028,-0.014 -0.047,-0.018c-0.02,-0.004 -0.041,-0.008 -0.065,-0.011c-0.023,-0.003 -0.047,-0.008 -0.07,-0.014c-0.024,-0.005 -0.045,-0.014 -0.065,-0.024c-0.019,-0.011 -0.035,-0.026 -0.047,-0.045c-0.012,-0.019 -0.018,-0.044 -0.018,-0.074c0,-0.034 0.01,-0.063 0.029,-0.088c0.019,-0.025 0.046,-0.045 0.081,-0.059c0.035,-0.014 0.077,-0.02 0.125,-0.02c0.036,-0 0.072,0.004 0.109,0.012c0.037,0.008 0.067,0.02 0.091,0.034l-0.048,0.095c-0.025,-0.015 -0.05,-0.026 -0.076,-0.031c-0.026,-0.006 -0.052,-0.009 -0.077,-0.009c-0.038,0 -0.066,0.006 -0.084,0.017c-0.019,0.011 -0.028,0.026 -0.028,0.043c-0,0.016 0.006,0.028 0.018,0.036c0.012,0.008 0.028,0.014 0.047,0.019c0.02,0.004 0.041,0.008 0.065,0.012c0.023,0.003 0.047,0.007 0.07,0.013c0.024,0.006 0.045,0.014 0.065,0.025c0.019,0.01 0.035,0.025 0.047,0.043c0.012,0.019 0.018,0.043 0.018,0.073c-0,0.034 -0.01,0.063 -0.03,0.087c-0.019,0.025 -0.047,0.044 -0.083,0.057c-0.036,0.014 -0.079,0.021 -0.129,0.021Z" style="fill:#333;fill-rule:nonzero;"/></g><g transform="matrix(208.333,0,0,208.333,1071.26,545.356)"><path d="M0.247,0.007c-0.044,-0 -0.087,-0.006 -0.128,-0.018c-0.041,-0.011 -0.074,-0.025 -0.098,-0.042l0.048,-0.095c0.024,0.016 0.053,0.028 0.086,0.038c0.033,0.01 0.067,0.015 0.1,0.015c0.04,-0 0.068,-0.005 0.086,-0.016c0.017,-0.01 0.026,-0.025 0.026,-0.043c-0,-0.015 -0.006,-0.026 -0.018,-0.033c-0.012,-0.008 -0.028,-0.014 -0.047,-0.018c-0.02,-0.004 -0.041,-0.008 -0.065,-0.011c-0.023,-0.003 -0.047,-0.008 -0.07,-0.014c-0.024,-0.005 -0.045,-0.014 -0.065,-0.024c-0.019,-0.011 -0.035,-0.026 -0.047,-0.045c-0.012,-0.019 -0.018,-0.044 -0.018,-0.074c0,-0.034 0.01,-0.063 0.029,-0.088c0.019,-0.025 0.046,-0.045 0.081,-0.059c0.035,-0.014 0.077,-0.02 0.125,-0.02c0.036,-0 0.072,0.004 0.109,0.012c0.037,0.008 0.067,0.02 0.091,0.034l-0.048,0.095c-0.025,-0.015 -0.05,-0.026 -0.076,-0.031c-0.026,-0.006 -0.052,-0.009 -0.077,-0.009c-0.038,0 -0.066,0.006 -0.084,0.017c-0.019,0.011 -0.028,0.026 -0.028,0.043c-0,0.016 0.006,0.028 0.018,0.036c0.012,0.008 0.028,0.014 0.047,0.019c0.02,0.004 0.041,0.008 0.065,0.012c0.023,0.003 0.047,0.007 0.07,0.013c0.024,0.006 0.045,0.014 0.065,0.025c0.019,0.01 0.035,0.025 0.047,0.043c0.012,0.019 0.018,0.043 0.018,0.073c-0,0.034 -0.01,0.063 -0.03,0.087c-0.019,0.025 -0.047,0.044 -0.083,0.057c-0.036,0.014 -0.079,0.021 -0.129,0.021Z" style="fill:#333;fill-rule:nonzero;"/></g><g transform="matrix(208.333,0,0,208.333,1178.55,545.356)"></g></svg>